<svg width="400" height="300" viewBox="0 0 400 300" fill="none" xmlns="http://www.w3.org/2000/svg">
  <rect width="400" height="300" fill="url(#gradient1)"/>
  
  <!-- Hospital building -->
  <rect x="140" y="120" width="120" height="80" fill="#dc2626" rx="8"/>
  <rect x="160" y="140" width="25" height="25" fill="#fecaca"/>
  <rect x="195" y="140" width="25" height="25" fill="#fecaca"/>
  <rect x="230" y="140" width="25" height="25" fill="#fecaca"/>
  <rect x="160" y="175" width="25" height="25" fill="#fecaca"/>
  <rect x="195" y="175" width="25" height="25" fill="#fecaca"/>
  <rect x="230" y="175" width="25" height="25" fill="#fecaca"/>
  
  <!-- Cross symbol -->
  <rect x="195" y="80" width="25" height="25" fill="#dc2626"/>
  <rect x="185" y="90" width="45" height="5" fill="white"/>
  <rect x="200" y="75" width="5" height="45" fill="white"/>
  
  <!-- Medical equipment -->
  <rect x="50" y="180" width="60" height="40" fill="#3b82f6" rx="6"/>
  <text x="80" y="205" text-anchor="middle" fill="white" font-family="Arial" font-size="10">MRI</text>
  
  <rect x="290" y="180" width="60" height="40" fill="#3b82f6" rx="6"/>
  <text x="320" y="205" text-anchor="middle" fill="white" font-family="Arial" font-size="10">Lab</text>
  
  <!-- DNA helix -->
  <path d="M80 80 Q100 60 120 80 Q140 100 160 80 Q180 60 200 80 Q220 100 240 80 Q260 60 280 80 Q300 100 320 80" stroke="#8b5cf6" stroke-width="3" fill="none"/>
  <path d="M80 100 Q100 120 120 100 Q140 80 160 100 Q180 120 200 100 Q220 80 240 100 Q260 120 280 100 Q300 80 320 100" stroke="#8b5cf6" stroke-width="3" fill="none"/>
  
  <!-- Connecting lines -->
  <line x1="80" y1="80" x2="80" y2="100" stroke="#8b5cf6" stroke-width="2"/>
  <line x1="120" y1="80" x2="120" y2="100" stroke="#8b5cf6" stroke-width="2"/>
  <line x1="160" y1="80" x2="160" y2="100" stroke="#8b5cf6" stroke-width="2"/>
  <line x1="200" y1="80" x2="200" y2="100" stroke="#8b5cf6" stroke-width="2"/>
  <line x1="240" y1="80" x2="240" y2="100" stroke="#8b5cf6" stroke-width="2"/>
  <line x1="280" y1="80" x2="280" y2="100" stroke="#8b5cf6" stroke-width="2"/>
  <line x1="320" y1="80" x2="320" y2="100" stroke="#8b5cf6" stroke-width="2"/>
  
  <!-- Heart symbol -->
  <path d="M200 40 Q200 30 190 30 Q180 30 180 40 Q180 50 200 60 Q220 50 220 40 Q220 30 210 30 Q200 30 200 40" fill="#ef4444" opacity="0.8"/>
  
  <!-- Security elements -->
  <circle cx="200" cy="25" r="12" fill="#10b981" opacity="0.8"/>
  <text x="200" y="31" text-anchor="middle" fill="white" font-family="Arial" font-size="12" font-weight="bold">🔒</text>
  
  <defs>
    <linearGradient id="gradient1" x1="0%" y1="0%" x2="100%" y2="100%">
      <stop offset="0%" style="stop-color:#fef2f2;stop-opacity:1" />
      <stop offset="100%" style="stop-color:#fee2e2;stop-opacity:1" />
    </linearGradient>
  </defs>
</svg>
