<svg width="400" height="300" viewBox="0 0 400 300" fill="none" xmlns="http://www.w3.org/2000/svg">
  <rect width="400" height="300" fill="url(#gradient1)"/>
  
  <!-- Government building -->
  <rect x="120" y="100" width="160" height="100" fill="#475569" rx="8"/>
  <rect x="140" y="120" width="30" height="30" fill="#64748b"/>
  <rect x="180" y="120" width="30" height="30" fill="#64748b"/>
  <rect x="220" y="120" width="30" height="30" fill="#64748b"/>
  <rect x="140" y="160" width="30" height="30" fill="#64748b"/>
  <rect x="180" y="160" width="30" height="30" fill="#64748b"/>
  <rect x="220" y="160" width="30" height="30" fill="#64748b"/>
  
  <!-- Flag -->
  <rect x="280" y="80" width="4" height="60" fill="#8b5cf6"/>
  <rect x="284" y="80" width="20" height="15" fill="#ef4444"/>
  <circle cx="294" cy="87" r="3" fill="#1e40af"/>
  
  <!-- Columns -->
  <rect x="110" y="90" width="12" height="120" fill="#475569"/>
  <rect x="278" y="90" width="12" height="120" fill="#475569"/>
  
  <!-- Roof -->
  <path d="M110 90 L200 60 L290 90" stroke="#475569" stroke-width="6" fill="none"/>
  
  <!-- Finnish flag colors -->
  <rect x="50" y="50" width="40" height="25" fill="#ffffff"/>
  <rect x="50" y="50" width="40" height="8" fill="#003580"/>
  <rect x="50" y="67" width="40" height="8" fill="#003580"/>
  
  <!-- Documents -->
  <rect x="50" y="200" width="50" height="70" fill="#f59e0b" rx="4"/>
  <rect x="55" y="210" width="40" height="2" fill="#ffffff"/>
  <rect x="55" y="215" width="35" height="2" fill="#ffffff"/>
  <rect x="55" y="220" width="40" height="2" fill="#ffffff"/>
  <rect x="55" y="225" width="30" height="2" fill="#ffffff"/>
  
  <rect x="300" y="200" width="50" height="70" fill="#f59e0b" rx="4"/>
  <rect x="305" y="210" width="40" height="2" fill="#ffffff"/>
  <rect x="305" y="215" width="35" height="2" fill="#ffffff"/>
  <rect x="305" y="220" width="40" height="2" fill="#ffffff"/>
  <rect x="305" y="225" width="30" height="2" fill="#ffffff"/>
  
  <!-- Security elements -->
  <circle cx="200" cy="40" r="15" fill="#10b981" opacity="0.8"/>
  <text x="200" y="46" text-anchor="middle" fill="white" font-family="Arial" font-size="16" font-weight="bold">🔒</text>
  
  <defs>
    <linearGradient id="gradient1" x1="0%" y1="0%" x2="100%" y2="100%">
      <stop offset="0%" style="stop-color:#f8fafc;stop-opacity:1" />
      <stop offset="100%" style="stop-color:#e2e8f0;stop-opacity:1" />
    </linearGradient>
  </defs>
</svg>
